# xmcd
#
# Track frame offsets: 
#        150
#        15278
#        33286
#        48179
#        60227
#        67577
#        80675
#        99118
#        110004
#        122744
#        138172
#        148995
#        161146
#        173739
#        184942
#
# Disc length: 2620 seconds
#
# Revision: 1
# Processed by: cddbd v1.5.1PL2 Copyright (c) Steve Scherf et al.
# Submitted via: ExactAudioCopy v0.95a5
#
DISCID=bb0a3a0f
DTITLE=Nashville Super Guitars - Country Hit Kit
DYEAR=2002
DGENRE=Instrumental
TTITLE0=I'm Moving On
TTITLE1=El Paso
TTITLE2=Mama Tried
TTITLE3=Stand By Your Man
TTITLE4=John Henry
TTITLE5=Rose Garden
TTITLE6=Night Life
TTITLE7=Tennessee Flat Top Box
TTITLE8=The 8th Of January
TTITLE9=Crazy
TTITLE10=Nashville Jubilee
TTITLE11=White Lightning
TTITLE12=Lonesome Road Blues
TTITLE13=Ring Of Fire
TTITLE14=King Of The Road
EXTD=
EXTT0=
EXTT1=
EXTT2=
EXTT3=
EXTT4=
EXTT5=
EXTT6=
EXTT7=
EXTT8=
EXTT9=
EXTT10=
EXTT11=
EXTT12=
EXTT13=
EXTT14=
PLAYORDER=
